<mxfile host="app.diagrams.net" modified="2021-01-21T15:46:31.777Z" agent="5.0 (Windows NT 10.0; Win64; x64) AppleWebKit/537.36 (KHTML, like Gecko) Chrome/87.0.4280.88 Safari/537.36" etag="BEJ4KmZMjykv44UrBmgT" version="14.2.6" type="github">
  <diagram id="C5RBs43oDa-KdzZeNtuy" name="Page-1">
    <mxGraphModel dx="1360" dy="802" grid="1" gridSize="10" guides="1" tooltips="1" connect="1" arrows="1" fold="1" page="1" pageScale="1" pageWidth="827" pageHeight="1169" math="0" shadow="0">
      <root>
        <mxCell id="WIyWlLk6GJQsqaUBKTNV-0" />
        <mxCell id="WIyWlLk6GJQsqaUBKTNV-1" parent="WIyWlLk6GJQsqaUBKTNV-0" />
        <mxCell id="ubgIihcrAonh5740Y3Vh-0" value="Program is run" style="rounded=0;whiteSpace=wrap;html=1;" parent="WIyWlLk6GJQsqaUBKTNV-1" vertex="1">
          <mxGeometry x="80" y="40" width="120" height="40" as="geometry" />
        </mxCell>
        <mxCell id="ubgIihcrAonh5740Y3Vh-3" value="" style="endArrow=classic;html=1;exitX=0.5;exitY=1;exitDx=0;exitDy=0;entryX=0.5;entryY=0;entryDx=0;entryDy=0;" parent="WIyWlLk6GJQsqaUBKTNV-1" source="ubgIihcrAonh5740Y3Vh-0" target="ubgIihcrAonh5740Y3Vh-5" edge="1">
          <mxGeometry width="50" height="50" relative="1" as="geometry">
            <mxPoint x="390" y="440" as="sourcePoint" />
            <mxPoint x="140" y="110" as="targetPoint" />
          </mxGeometry>
        </mxCell>
        <mxCell id="ubgIihcrAonh5740Y3Vh-9" style="edgeStyle=orthogonalEdgeStyle;rounded=0;orthogonalLoop=1;jettySize=auto;html=1;exitX=0.5;exitY=1;exitDx=0;exitDy=0;entryX=0.5;entryY=0;entryDx=0;entryDy=0;" parent="WIyWlLk6GJQsqaUBKTNV-1" source="ubgIihcrAonh5740Y3Vh-4" target="ubgIihcrAonh5740Y3Vh-8" edge="1">
          <mxGeometry relative="1" as="geometry" />
        </mxCell>
        <mxCell id="ubgIihcrAonh5740Y3Vh-4" value="Player or AI" style="rounded=0;whiteSpace=wrap;html=1;" parent="WIyWlLk6GJQsqaUBKTNV-1" vertex="1">
          <mxGeometry x="80" y="200" width="120" height="40" as="geometry" />
        </mxCell>
        <mxCell id="ubgIihcrAonh5740Y3Vh-7" style="edgeStyle=orthogonalEdgeStyle;rounded=0;orthogonalLoop=1;jettySize=auto;html=1;exitX=0.5;exitY=1;exitDx=0;exitDy=0;entryX=0.5;entryY=0;entryDx=0;entryDy=0;" parent="WIyWlLk6GJQsqaUBKTNV-1" source="ubgIihcrAonh5740Y3Vh-5" target="ubgIihcrAonh5740Y3Vh-4" edge="1">
          <mxGeometry relative="1" as="geometry" />
        </mxCell>
        <mxCell id="ubgIihcrAonh5740Y3Vh-5" value="Difficulty" style="rounded=0;whiteSpace=wrap;html=1;" parent="WIyWlLk6GJQsqaUBKTNV-1" vertex="1">
          <mxGeometry x="80" y="120" width="120" height="40" as="geometry" />
        </mxCell>
        <mxCell id="ubgIihcrAonh5740Y3Vh-14" style="edgeStyle=orthogonalEdgeStyle;rounded=0;orthogonalLoop=1;jettySize=auto;html=1;exitX=0.5;exitY=1;exitDx=0;exitDy=0;entryX=0.5;entryY=0;entryDx=0;entryDy=0;" parent="WIyWlLk6GJQsqaUBKTNV-1" source="ubgIihcrAonh5740Y3Vh-8" target="ubgIihcrAonh5740Y3Vh-11" edge="1">
          <mxGeometry relative="1" as="geometry" />
        </mxCell>
        <mxCell id="ubgIihcrAonh5740Y3Vh-8" value="Game Board is Loaded" style="rounded=0;whiteSpace=wrap;html=1;" parent="WIyWlLk6GJQsqaUBKTNV-1" vertex="1">
          <mxGeometry x="80" y="280" width="120" height="40" as="geometry" />
        </mxCell>
        <mxCell id="ubgIihcrAonh5740Y3Vh-17" style="edgeStyle=orthogonalEdgeStyle;rounded=0;orthogonalLoop=1;jettySize=auto;html=1;entryX=0.5;entryY=0;entryDx=0;entryDy=0;" parent="WIyWlLk6GJQsqaUBKTNV-1" source="ubgIihcrAonh5740Y3Vh-11" target="ubgIihcrAonh5740Y3Vh-16" edge="1">
          <mxGeometry relative="1" as="geometry" />
        </mxCell>
        <mxCell id="ubgIihcrAonh5740Y3Vh-11" value="Player Takes Turn" style="rounded=0;whiteSpace=wrap;html=1;" parent="WIyWlLk6GJQsqaUBKTNV-1" vertex="1">
          <mxGeometry x="80" y="360" width="120" height="40" as="geometry" />
        </mxCell>
        <mxCell id="Qx-oTTjLCkwZPm6l4YWn-2" style="edgeStyle=orthogonalEdgeStyle;rounded=0;orthogonalLoop=1;jettySize=auto;html=1;" edge="1" parent="WIyWlLk6GJQsqaUBKTNV-1" source="ubgIihcrAonh5740Y3Vh-15" target="Qx-oTTjLCkwZPm6l4YWn-1">
          <mxGeometry relative="1" as="geometry" />
        </mxCell>
        <mxCell id="ubgIihcrAonh5740Y3Vh-15" value="Other Player/AI Takes Turn" style="rounded=0;whiteSpace=wrap;html=1;" parent="WIyWlLk6GJQsqaUBKTNV-1" vertex="1">
          <mxGeometry x="240" y="435" width="120" height="40" as="geometry" />
        </mxCell>
        <mxCell id="ubgIihcrAonh5740Y3Vh-21" style="edgeStyle=orthogonalEdgeStyle;rounded=0;orthogonalLoop=1;jettySize=auto;html=1;exitX=1;exitY=0.5;exitDx=0;exitDy=0;entryX=0;entryY=0.5;entryDx=0;entryDy=0;" parent="WIyWlLk6GJQsqaUBKTNV-1" source="ubgIihcrAonh5740Y3Vh-16" target="ubgIihcrAonh5740Y3Vh-15" edge="1">
          <mxGeometry relative="1" as="geometry" />
        </mxCell>
        <mxCell id="Qx-oTTjLCkwZPm6l4YWn-4" style="edgeStyle=orthogonalEdgeStyle;rounded=0;orthogonalLoop=1;jettySize=auto;html=1;" edge="1" parent="WIyWlLk6GJQsqaUBKTNV-1" source="ubgIihcrAonh5740Y3Vh-16" target="Qx-oTTjLCkwZPm6l4YWn-0">
          <mxGeometry relative="1" as="geometry">
            <Array as="points">
              <mxPoint x="140" y="563" />
            </Array>
          </mxGeometry>
        </mxCell>
        <mxCell id="ubgIihcrAonh5740Y3Vh-16" value="Is game &lt;br&gt;over?" style="rhombus;whiteSpace=wrap;html=1;" parent="WIyWlLk6GJQsqaUBKTNV-1" vertex="1">
          <mxGeometry x="100" y="420" width="80" height="70" as="geometry" />
        </mxCell>
        <mxCell id="ubgIihcrAonh5740Y3Vh-19" style="edgeStyle=orthogonalEdgeStyle;rounded=0;orthogonalLoop=1;jettySize=auto;html=1;exitX=0;exitY=0.75;exitDx=0;exitDy=0;entryX=0;entryY=0.5;entryDx=0;entryDy=0;" parent="WIyWlLk6GJQsqaUBKTNV-1" source="ubgIihcrAonh5740Y3Vh-15" target="ubgIihcrAonh5740Y3Vh-15" edge="1">
          <mxGeometry relative="1" as="geometry" />
        </mxCell>
        <mxCell id="Qx-oTTjLCkwZPm6l4YWn-6" style="edgeStyle=orthogonalEdgeStyle;rounded=0;orthogonalLoop=1;jettySize=auto;html=1;entryX=1;entryY=0.5;entryDx=0;entryDy=0;exitX=0.5;exitY=1;exitDx=0;exitDy=0;" edge="1" parent="WIyWlLk6GJQsqaUBKTNV-1" source="Qx-oTTjLCkwZPm6l4YWn-0" target="ubgIihcrAonh5740Y3Vh-5">
          <mxGeometry relative="1" as="geometry">
            <Array as="points">
              <mxPoint x="300" y="630" />
              <mxPoint x="530" y="630" />
              <mxPoint x="530" y="140" />
            </Array>
          </mxGeometry>
        </mxCell>
        <mxCell id="Qx-oTTjLCkwZPm6l4YWn-0" value="Check Winner and Display" style="rounded=0;whiteSpace=wrap;html=1;" vertex="1" parent="WIyWlLk6GJQsqaUBKTNV-1">
          <mxGeometry x="240" y="540" width="120" height="45" as="geometry" />
        </mxCell>
        <mxCell id="Qx-oTTjLCkwZPm6l4YWn-3" style="edgeStyle=orthogonalEdgeStyle;rounded=0;orthogonalLoop=1;jettySize=auto;html=1;entryX=1;entryY=0.5;entryDx=0;entryDy=0;" edge="1" parent="WIyWlLk6GJQsqaUBKTNV-1" source="Qx-oTTjLCkwZPm6l4YWn-1" target="ubgIihcrAonh5740Y3Vh-11">
          <mxGeometry relative="1" as="geometry">
            <Array as="points">
              <mxPoint x="454" y="380" />
            </Array>
          </mxGeometry>
        </mxCell>
        <mxCell id="Qx-oTTjLCkwZPm6l4YWn-5" style="edgeStyle=orthogonalEdgeStyle;rounded=0;orthogonalLoop=1;jettySize=auto;html=1;entryX=1;entryY=0.5;entryDx=0;entryDy=0;" edge="1" parent="WIyWlLk6GJQsqaUBKTNV-1" source="Qx-oTTjLCkwZPm6l4YWn-1" target="Qx-oTTjLCkwZPm6l4YWn-0">
          <mxGeometry relative="1" as="geometry">
            <Array as="points">
              <mxPoint x="454" y="563" />
              <mxPoint x="387" y="563" />
            </Array>
          </mxGeometry>
        </mxCell>
        <mxCell id="Qx-oTTjLCkwZPm6l4YWn-1" value="Is game &lt;br&gt;over?" style="rhombus;whiteSpace=wrap;html=1;" vertex="1" parent="WIyWlLk6GJQsqaUBKTNV-1">
          <mxGeometry x="414" y="420" width="80" height="70" as="geometry" />
        </mxCell>
        <mxCell id="Qx-oTTjLCkwZPm6l4YWn-7" value="No" style="text;html=1;strokeColor=none;fillColor=none;align=center;verticalAlign=middle;whiteSpace=wrap;rounded=0;" vertex="1" parent="WIyWlLk6GJQsqaUBKTNV-1">
          <mxGeometry x="450" y="400" width="40" height="20" as="geometry" />
        </mxCell>
        <mxCell id="Qx-oTTjLCkwZPm6l4YWn-8" value="No" style="text;html=1;strokeColor=none;fillColor=none;align=center;verticalAlign=middle;whiteSpace=wrap;rounded=0;" vertex="1" parent="WIyWlLk6GJQsqaUBKTNV-1">
          <mxGeometry x="180" y="430" width="40" height="20" as="geometry" />
        </mxCell>
        <mxCell id="Qx-oTTjLCkwZPm6l4YWn-9" value="Yes" style="text;html=1;strokeColor=none;fillColor=none;align=center;verticalAlign=middle;whiteSpace=wrap;rounded=0;" vertex="1" parent="WIyWlLk6GJQsqaUBKTNV-1">
          <mxGeometry x="100" y="490" width="40" height="20" as="geometry" />
        </mxCell>
        <mxCell id="Qx-oTTjLCkwZPm6l4YWn-10" value="Yes" style="text;html=1;strokeColor=none;fillColor=none;align=center;verticalAlign=middle;whiteSpace=wrap;rounded=0;" vertex="1" parent="WIyWlLk6GJQsqaUBKTNV-1">
          <mxGeometry x="454" y="490" width="40" height="20" as="geometry" />
        </mxCell>
      </root>
    </mxGraphModel>
  </diagram>
</mxfile>
